<svg width="71" height="70" viewBox="0 0 71 70" fill="none" xmlns="http://www.w3.org/2000/svg">
<path d="M21.1068 5.83325C19.5597 5.83325 18.0759 6.44783 16.982 7.5418C15.888 8.63576 15.2734 10.1195 15.2734 11.6666V49.5833C15.2734 51.1303 15.888 52.6141 16.982 53.708C18.0759 54.802 19.5597 55.4166 21.1068 55.4166H33.2809C32.9429 53.9828 32.7726 52.5147 32.7734 51.0416H21.1068C20.72 51.0416 20.3491 50.8879 20.0756 50.6145C19.8021 50.341 19.6484 49.97 19.6484 49.5833V11.6666C19.6484 11.2798 19.8021 10.9089 20.0756 10.6354C20.3491 10.3619 20.72 10.2083 21.1068 10.2083H37.1484V19.6874C37.1484 22.5049 39.4351 24.7916 42.2526 24.7916H51.7318V32.0833C53.2368 32.0833 54.7009 32.2583 56.1068 32.5908V22.6566C56.1064 21.1096 55.4916 19.6261 54.3976 18.5324L43.4076 7.54242C42.3139 6.44838 40.8304 5.83358 39.2834 5.83325H21.1068ZM41.5234 19.6874V11.8416L50.0984 20.4166H42.2526C42.0592 20.4166 41.8738 20.3398 41.737 20.203C41.6003 20.0663 41.5234 19.8808 41.5234 19.6874ZM19.6484 59.7916H34.9084C35.7435 61.3918 36.8022 62.8649 38.0526 64.1666H19.6484C16.1675 64.1666 12.8291 62.7838 10.3677 60.3224C7.90625 57.8609 6.52344 54.5226 6.52344 51.0416V45.9374C6.52344 45.3573 6.75391 44.8009 7.16414 44.3906C7.57438 43.9804 8.13078 43.7499 8.71094 43.7499C9.2911 43.7499 9.8475 43.9804 10.2577 44.3906C10.668 44.8009 10.8984 45.3573 10.8984 45.9374V51.0416C10.8984 53.3622 11.8203 55.5878 13.4613 57.2288C15.1022 58.8697 17.3278 59.7916 19.6484 59.7916ZM24.0234 16.7708C24.0234 16.1906 24.2539 15.6342 24.6641 15.224C25.0744 14.8137 25.6308 14.5833 26.2109 14.5833H30.5859C31.1661 14.5833 31.7225 14.8137 32.1327 15.224C32.543 15.6342 32.7734 16.1906 32.7734 16.7708C32.7734 17.3509 32.543 17.9073 32.1327 18.3175C31.7225 18.7278 31.1661 18.9583 30.5859 18.9583H26.2109C25.6308 18.9583 25.0744 18.7278 24.6641 18.3175C24.2539 17.9073 24.0234 17.3509 24.0234 16.7708ZM26.2109 23.3333C25.6308 23.3333 25.0744 23.5637 24.6641 23.974C24.2539 24.3842 24.0234 24.9406 24.0234 25.5208C24.0234 26.1009 24.2539 26.6573 24.6641 27.0675C25.0744 27.4778 25.6308 27.7083 26.2109 27.7083H30.5859C31.1661 27.7083 31.7225 27.4778 32.1327 27.0675C32.543 26.6573 32.7734 26.1009 32.7734 25.5208C32.7734 24.9406 32.543 24.3842 32.1327 23.974C31.7225 23.5637 31.1661 23.3333 30.5859 23.3333H26.2109ZM26.2109 32.0833C25.6308 32.0833 25.0744 32.3137 24.6641 32.724C24.2539 33.1342 24.0234 33.6906 24.0234 34.2708C24.0234 34.8509 24.2539 35.4073 24.6641 35.8175C25.0744 36.2278 25.6308 36.4583 26.2109 36.4583H30.5859C31.1661 36.4583 31.7225 36.2278 32.1327 35.8175C32.543 35.4073 32.7734 34.8509 32.7734 34.2708C32.7734 33.6906 32.543 33.1342 32.1327 32.724C31.7225 32.3137 31.1661 32.0833 30.5859 32.0833H26.2109ZM67.7734 51.0416C67.7734 46.7871 66.0833 42.7068 63.0749 39.6984C60.0665 36.69 55.9863 34.9999 51.7318 34.9999C47.4773 34.9999 43.397 36.69 40.3886 39.6984C37.3802 42.7068 35.6901 46.7871 35.6901 51.0416C35.6901 55.2961 37.3802 59.3764 40.3886 62.3848C43.397 65.3932 47.4773 67.0833 51.7318 67.0833C55.9863 67.0833 60.0665 65.3932 63.0749 62.3848C66.0833 59.3764 67.7734 55.2961 67.7734 51.0416ZM53.1901 52.4999L53.193 59.8003C53.193 60.1871 53.0394 60.558 52.7659 60.8315C52.4924 61.105 52.1215 61.2587 51.7347 61.2587C51.3479 61.2587 50.977 61.105 50.7035 60.8315C50.43 60.558 50.2764 60.1871 50.2764 59.8003V52.4999H42.9701C42.5833 52.4999 42.2124 52.3463 41.9389 52.0728C41.6654 51.7993 41.5118 51.4284 41.5118 51.0416C41.5118 50.6548 41.6654 50.2839 41.9389 50.0104C42.2124 49.7369 42.5833 49.5833 42.9701 49.5833H50.2734V42.2916C50.2734 41.9048 50.4271 41.5339 50.7006 41.2604C50.9741 40.9869 51.345 40.8333 51.7318 40.8333C52.1185 40.8333 52.4895 40.9869 52.763 41.2604C53.0365 41.5339 53.1901 41.9048 53.1901 42.2916V49.5833H60.473C60.8598 49.5833 61.2307 49.7369 61.5042 50.0104C61.7777 50.2839 61.9314 50.6548 61.9314 51.0416C61.9314 51.4284 61.7777 51.7993 61.5042 52.0728C61.2307 52.3463 60.8598 52.4999 60.473 52.4999H53.1901Z" fill="#231F20"/>
</svg>
