<?xml version="1.0" encoding="UTF-8"?>
<!DOCTYPE svg PUBLIC "-//W3C//DTD SVG 1.1//EN" "http://www.w3.org/Graphics/SVG/1.1/DTD/svg11.dtd">
<svg xmlns="http://www.w3.org/2000/svg" version="1.1" width="222px" height="300px" style="shape-rendering:geometricPrecision; text-rendering:geometricPrecision; image-rendering:optimizeQuality; fill-rule:evenodd; clip-rule:evenodd" xmlns:xlink="http://www.w3.org/1999/xlink">
<g><path style="opacity:1" fill="#f1f8fa" d="M 118.5,2.5 C 119.469,8.18783 117.136,11.1878 111.5,11.5C 110.542,11.0472 109.708,10.3805 109,9.5C 107.549,0.778699 110.716,-1.55463 118.5,2.5 Z"/></g>
<g><path style="opacity:0.997" fill="#d4d8d9" d="M 105.5,5.5 C 106.376,5.36912 107.043,5.70245 107.5,6.5C 79.6958,23.9082 51.3625,40.5748 22.5,56.5C 21.4777,56.1445 20.811,55.4778 20.5,54.5C 48.3354,37.412 76.6687,21.0787 105.5,5.5 Z"/></g>
<g><path style="opacity:0.998" fill="#cfd3d5" d="M 119.5,4.5 C 148.207,20.8507 176.873,37.184 205.5,53.5C 205.585,54.9953 204.919,55.9953 203.5,56.5C 175.67,40.7526 148.003,24.7526 120.5,8.5C 119.571,7.31116 119.238,5.97782 119.5,4.5 Z"/></g>
<g><path style="opacity:1" fill="#0688b6" d="M 109.5,-0.5 C 111.833,-0.5 114.167,-0.5 116.5,-0.5C 117.551,0.222348 118.218,1.22235 118.5,2.5C 110.716,-1.55463 107.549,0.778699 109,9.5C 109.708,10.3805 110.542,11.0472 111.5,11.5C 111.5,11.8333 111.5,12.1667 111.5,12.5C 111.833,26.5159 111.499,40.5159 110.5,54.5C 108.438,56.3603 107.105,58.6936 106.5,61.5C 94.0724,68.1278 81.9058,75.1278 70,82.5C 66.4838,79.8841 62.9838,79.8841 59.5,82.5C 47.5,75.8333 35.5,69.1667 23.5,62.5C 22.5596,57.3841 19.5596,55.2174 14.5,56C 12.297,58.76 11.9637,61.76 13.5,65C 15.3453,66.128 17.3453,66.628 19.5,66.5C 18.791,67.404 17.791,67.7373 16.5,67.5C 15.8333,67.5 15.1667,67.5 14.5,67.5C 14.5,66.8333 14.1667,66.5 13.5,66.5C 9.52667,62.7866 9.52667,58.9533 13.5,55C 15.8098,54.5034 18.1432,54.3367 20.5,54.5C 20.811,55.4778 21.4777,56.1445 22.5,56.5C 51.3625,40.5748 79.6958,23.9082 107.5,6.5C 107.043,5.70245 106.376,5.36912 105.5,5.5C 106.833,3.5 108.167,1.5 109.5,-0.5 Z"/></g>
<g><path style="opacity:1" fill="#0888b7" d="M 118.5,2.5 C 119.338,2.84171 119.672,3.50838 119.5,4.5C 119.238,5.97782 119.571,7.31116 120.5,8.5C 148.003,24.7526 175.67,40.7526 203.5,56.5C 204.919,55.9953 205.585,54.9953 205.5,53.5C 207.859,54.176 210.192,55.0093 212.5,56C 213.252,56.6708 213.586,57.5041 213.5,58.5C 213.784,60.4147 213.451,62.0813 212.5,63.5C 213.487,57.6688 211.154,55.5022 205.5,57C 202.833,60 202.833,63 205.5,66C 208.171,66.8332 210.504,66.3332 212.5,64.5C 212.5,65.1667 212.5,65.8333 212.5,66.5C 211.609,67.1098 210.609,67.4431 209.5,67.5C 206.812,67.8342 204.479,67.1675 202.5,65.5C 202.157,63.7748 201.157,63.2748 199.5,64C 188.415,70.6262 177.249,77.1262 166,83.5C 164.874,82.0564 163.374,81.3898 161.5,81.5C 159.476,82.0212 157.476,82.1878 155.5,82C 143.251,74.9594 131.084,67.7927 119,60.5C 118.942,57.4413 117.609,55.108 115,53.5C 114.5,39.8374 114.333,26.1707 114.5,12.5C 113.5,12.5 112.5,12.5 111.5,12.5C 111.5,12.1667 111.5,11.8333 111.5,11.5C 117.136,11.1878 119.469,8.18783 118.5,2.5 Z"/></g>
<g><path style="opacity:1" fill="#eff3f4" d="M 111.5,12.5 C 112.5,12.5 113.5,12.5 114.5,12.5C 114.333,26.1707 114.5,39.8374 115,53.5C 117.609,55.108 118.942,57.4413 119,60.5C 131.084,67.7927 143.251,74.9594 155.5,82C 157.476,82.1878 159.476,82.0212 161.5,81.5C 163.374,81.3898 164.874,82.0564 166,83.5C 177.249,77.1262 188.415,70.6262 199.5,64C 201.157,63.2748 202.157,63.7748 202.5,65.5C 191.23,72.1403 179.896,78.8069 168.5,85.5C 167.502,88.1636 166.002,90.497 164,92.5C 163.167,107.844 163.334,123.178 164.5,138.5C 166.94,140.109 168.107,142.443 168,145.5C 180.164,152.248 192.164,159.248 204,166.5C 204.383,165.944 204.883,165.611 205.5,165.5C 205.443,166.609 205.11,167.609 204.5,168.5C 203.833,168.5 203.167,168.5 202.5,168.5C 190.597,161.965 178.764,155.298 167,148.5C 165.333,149.167 163.667,149.833 162,150.5C 160.418,148.971 158.585,148.471 156.5,149C 144.167,156 131.833,163 119.5,170C 118.378,172.124 116.878,173.957 115,175.5C 114.172,190.339 114.339,205.006 115.5,219.5C 115.5,219.833 115.5,220.167 115.5,220.5C 114.167,220.5 112.833,220.5 111.5,220.5C 111.5,220.167 111.5,219.833 111.5,219.5C 112.166,212.174 112.5,204.674 112.5,197C 112.497,189.136 111.831,181.636 110.5,174.5C 108.691,171.861 106.358,169.694 103.5,168C 91.9029,161.62 80.4029,155.12 69,148.5C 65.8913,151.109 62.7247,151.109 59.5,148.5C 48.0036,154.747 36.6703,161.247 25.5,168C 24.8906,169.948 24.224,171.782 23.5,173.5C 23.988,165.949 20.988,163.616 14.5,166.5C 14.5,133.5 14.5,100.5 14.5,67.5C 15.1667,67.5 15.8333,67.5 16.5,67.5C 16.5,99.5 16.5,131.5 16.5,163.5C 19.1569,163.162 21.4902,163.829 23.5,165.5C 34.9622,159.2 46.2956,152.7 57.5,146C 57.9128,142.867 59.4128,140.367 62,138.5C 62.6667,122.833 62.6667,107.167 62,91.5C 60.2518,89.8648 59.0851,87.8648 58.5,85.5C 46.7035,78.8661 35.0368,72.0328 23.5,65C 21.6476,64.2274 20.3143,64.7274 19.5,66.5C 17.3453,66.628 15.3453,66.128 13.5,65C 11.9637,61.76 12.297,58.76 14.5,56C 19.5596,55.2174 22.5596,57.3841 23.5,62.5C 35.5,69.1667 47.5,75.8333 59.5,82.5C 62.9838,79.8841 66.4838,79.8841 70,82.5C 81.9058,75.1278 94.0724,68.1278 106.5,61.5C 107.105,58.6936 108.438,56.3603 110.5,54.5C 111.499,40.5159 111.833,26.5159 111.5,12.5 Z"/></g>
<g><path style="opacity:1" fill="#fcfdfe" d="M 212.5,63.5 C 212.5,63.8333 212.5,64.1667 212.5,64.5C 210.504,66.3332 208.171,66.8332 205.5,66C 202.833,63 202.833,60 205.5,57C 211.154,55.5022 213.487,57.6688 212.5,63.5 Z"/></g>
<g><path style="opacity:0.5" fill="#053f54" d="M 213.5,58.5 C 214.917,61.3404 214.584,64.007 212.5,66.5C 212.5,65.8333 212.5,65.1667 212.5,64.5C 212.5,64.1667 212.5,63.8333 212.5,63.5C 213.451,62.0813 213.784,60.4147 213.5,58.5 Z"/></g>
<g><path style="opacity:1" fill="#323232" d="M 107.5,63.5 C 110.971,66.0897 114.471,66.0897 118,63.5C 129.922,70.8791 142.088,77.8791 154.5,84.5C 155.631,86.0745 155.798,87.7412 155,89.5C 143.078,96.8791 130.912,103.879 118.5,110.5C 114.833,107.833 111.167,107.833 107.5,110.5C 95.6286,103.467 83.6286,96.6333 71.5,90C 70.1667,88.3333 70.1667,86.6667 71.5,85C 83.7288,78.059 95.7288,70.8923 107.5,63.5 Z"/></g>
<g><path style="opacity:1" fill="#323333" d="M 16.5,67.5 C 17.791,67.7373 18.791,67.404 19.5,66.5C 20.3143,64.7274 21.6476,64.2274 23.5,65C 35.0368,72.0328 46.7035,78.8661 58.5,85.5C 59.0851,87.8648 60.2518,89.8648 62,91.5C 62.6667,107.167 62.6667,122.833 62,138.5C 59.4128,140.367 57.9128,142.867 57.5,146C 46.2956,152.7 34.9622,159.2 23.5,165.5C 21.4902,163.829 19.1569,163.162 16.5,163.5C 16.5,131.5 16.5,99.5 16.5,67.5 Z"/></g>
<g><path style="opacity:1" fill="#313131" d="M 202.5,65.5 C 204.479,67.1675 206.812,67.8342 209.5,67.5C 209.5,99.5 209.5,131.5 209.5,163.5C 207.62,163.229 206.287,163.896 205.5,165.5C 204.883,165.611 204.383,165.944 204,166.5C 192.164,159.248 180.164,152.248 168,145.5C 168.107,142.443 166.94,140.109 164.5,138.5C 163.334,123.178 163.167,107.844 164,92.5C 166.002,90.497 167.502,88.1636 168.5,85.5C 179.896,78.8069 191.23,72.1403 202.5,65.5 Z"/></g>
<g><path style="opacity:0.472" fill="#8f8f8f" d="M 13.5,66.5 C 14.1667,66.5 14.5,66.8333 14.5,67.5C 14.5,100.5 14.5,133.5 14.5,166.5C 14.0653,169.838 14.7319,172.838 16.5,175.5C 16.5,175.833 16.5,176.167 16.5,176.5C 13.5641,175.485 12.2307,173.318 12.5,170C 13.4765,135.516 13.8098,101.016 13.5,66.5 Z"/></g>
<g><path style="opacity:0.976" fill="#f3f3f3" d="M 212.5,66.5 C 212.5,98.8333 212.5,131.167 212.5,163.5C 212.5,164.167 212.167,164.5 211.5,164.5C 209.435,164.517 207.435,164.85 205.5,165.5C 206.287,163.896 207.62,163.229 209.5,163.5C 209.5,131.5 209.5,99.5 209.5,67.5C 210.609,67.4431 211.609,67.1098 212.5,66.5 Z"/></g>
<g><path style="opacity:1" fill="#0488b7" d="M 65.5,91.5 C 67.6547,91.372 69.6547,91.872 71.5,93C 83.0368,100.033 94.7035,106.866 106.5,113.5C 107.347,115.872 108.681,117.872 110.5,119.5C 111.666,134.155 111.833,148.822 111,163.5C 108.155,167.141 104.988,167.308 101.5,164C 91.0822,157.707 80.5822,151.541 70,145.5C 69.8666,142.586 68.6999,140.253 66.5,138.5C 65.5006,122.848 65.1673,107.181 65.5,91.5 Z"/></g>
<g><path style="opacity:1" fill="#0589b7" d="M 156.5,91.5 C 158.017,91.5106 159.184,92.1772 160,93.5C 160.667,108.5 160.667,123.5 160,138.5C 157.413,140.367 155.913,142.867 155.5,146C 143.251,153.041 131.084,160.207 119,167.5C 118,165.833 116.667,164.5 115,163.5C 114.167,148.822 114.334,134.155 115.5,119.5C 117.319,117.872 118.653,115.872 119.5,113.5C 132.062,106.392 144.395,99.059 156.5,91.5 Z"/></g>
<g><path style="opacity:1" fill="#313131" d="M 110.5,174.5 C 111.483,189.422 111.816,204.422 111.5,219.5C 109.871,220.625 108.371,221.959 107,223.5C 80.9152,208.207 54.7485,193.04 28.5,178C 26.3083,176.933 24.6417,175.433 23.5,173.5C 24.224,171.782 24.8906,169.948 25.5,168C 36.6703,161.247 48.0036,154.747 59.5,148.5C 62.7247,151.109 65.8913,151.109 69,148.5C 80.4029,155.12 91.9029,161.62 103.5,168C 106.358,169.694 108.691,171.861 110.5,174.5 Z"/></g>
<g><path style="opacity:1" fill="#323232" d="M 202.5,168.5 C 203.089,170.352 203.756,172.185 204.5,174C 176.562,190.553 148.395,206.719 120,222.5C 118.357,221.685 116.857,220.685 115.5,219.5C 114.339,205.006 114.172,190.339 115,175.5C 116.878,173.957 118.378,172.124 119.5,170C 131.833,163 144.167,156 156.5,149C 158.585,148.471 160.418,148.971 162,150.5C 163.667,149.833 165.333,149.167 167,148.5C 178.764,155.298 190.597,161.965 202.5,168.5 Z"/></g>
<g><path style="opacity:1" fill="#353535" d="M 211.5,164.5 C 215.933,169.368 215.099,173.035 209,175.5C 205.498,174.505 203.998,172.171 204.5,168.5C 205.11,167.609 205.443,166.609 205.5,165.5C 207.435,164.85 209.435,164.517 211.5,164.5 Z"/></g>
<g><path style="opacity:1" fill="#343434" d="M 23.5,173.5 C 21.5214,175.168 19.188,175.834 16.5,175.5C 14.7319,172.838 14.0653,169.838 14.5,166.5C 20.988,163.616 23.988,165.949 23.5,173.5 Z"/></g>
<g><path style="opacity:0.997" fill="#c1c1c1" d="M 212.5,163.5 C 216.442,167.624 216.442,171.791 212.5,176C 209.711,176.241 207.044,176.908 204.5,178C 176.663,194.419 148.663,210.586 120.5,226.5C 118.932,232.188 115.265,234.021 109.5,232C 108.177,231.184 107.511,230.017 107.5,228.5C 107.833,228.5 108.167,228.5 108.5,228.5C 113.413,233.103 116.747,232.103 118.5,225.5C 117.908,223.577 116.908,221.911 115.5,220.5C 115.5,220.167 115.5,219.833 115.5,219.5C 116.857,220.685 118.357,221.685 120,222.5C 148.395,206.719 176.562,190.553 204.5,174C 203.756,172.185 203.089,170.352 202.5,168.5C 203.167,168.5 203.833,168.5 204.5,168.5C 203.998,172.171 205.498,174.505 209,175.5C 215.099,173.035 215.933,169.368 211.5,164.5C 212.167,164.5 212.5,164.167 212.5,163.5 Z"/></g>
<g><path style="opacity:0.997" fill="#cfcfcf" d="M 23.5,173.5 C 24.6417,175.433 26.3083,176.933 28.5,178C 54.7485,193.04 80.9152,208.207 107,223.5C 108.371,221.959 109.871,220.625 111.5,219.5C 111.5,219.833 111.5,220.167 111.5,220.5C 109.016,222.545 108.016,225.212 108.5,228.5C 108.167,228.5 107.833,228.5 107.5,228.5C 82.8934,213.189 57.8934,198.356 32.5,184C 27.4429,180.635 22.1095,178.135 16.5,176.5C 16.5,176.167 16.5,175.833 16.5,175.5C 19.188,175.834 21.5214,175.168 23.5,173.5 Z"/></g>
<g><path style="opacity:0.987" fill="#b7b7b7" d="M 110.5,174.5 C 111.831,181.636 112.497,189.136 112.5,197C 112.5,204.674 112.166,212.174 111.5,219.5C 111.816,204.422 111.483,189.422 110.5,174.5 Z"/></g>
<g><path style="opacity:1" fill="#333333" d="M 111.5,220.5 C 112.833,220.5 114.167,220.5 115.5,220.5C 116.908,221.911 117.908,223.577 118.5,225.5C 116.747,232.103 113.413,233.103 108.5,228.5C 108.016,225.212 109.016,222.545 111.5,220.5 Z"/></g>
<g><path style="opacity:0.577" fill="#000000" d="M 55.5,224.5 C 57.288,224.215 58.9547,224.548 60.5,225.5C 58.9202,228.062 56.9202,230.062 54.5,231.5C 53.8333,231.167 53.1667,230.833 52.5,230.5C 53.5133,228.473 54.5133,226.473 55.5,224.5 Z"/></g>
<g><path style="opacity:0.999" fill="#08688c" d="M -0.5,247.5 C -0.5,245.833 -0.5,244.167 -0.5,242.5C 7.9335,237.949 16.6002,233.949 25.5,230.5C 25.7394,232.467 25.4061,234.301 24.5,236C 18.4689,239.016 12.4689,242.016 6.5,245C 12.6209,247.56 18.6209,250.394 24.5,253.5C 25.8333,255.5 25.8333,257.5 24.5,259.5C 16.2666,255.216 7.93326,251.216 -0.5,247.5 Z"/></g>
<g><path style="opacity:0.68" fill="#000000" d="M 27.5,233.5 C 33.1667,233.5 38.8333,233.5 44.5,233.5C 44.5,234.833 44.5,236.167 44.5,237.5C 40.5,237.5 36.5,237.5 32.5,237.5C 32.5,239.5 32.5,241.5 32.5,243.5C 35.8333,243.5 39.1667,243.5 42.5,243.5C 42.5,244.833 42.5,246.167 42.5,247.5C 39.1667,247.5 35.8333,247.5 32.5,247.5C 32.5,251.167 32.5,254.833 32.5,258.5C 30.8333,258.5 29.1667,258.5 27.5,258.5C 27.5,250.167 27.5,241.833 27.5,233.5 Z"/></g>
<g><path style="opacity:0.726" fill="#000000" d="M 53.5,233.5 C 55.288,233.215 56.9547,233.548 58.5,234.5C 61.4066,242.389 64.4066,250.223 67.5,258C 65.7412,258.798 64.0745,258.631 62.5,257.5C 62.1248,253.152 59.7915,251.485 55.5,252.5C 53.8333,252.833 52.1667,253.167 50.5,253.5C 50.29,257.38 48.29,259.047 44.5,258.5C 47.2175,250.065 50.2175,241.732 53.5,233.5 Z M 55.5,239.5 C 56.7189,242.291 58.0522,245.124 59.5,248C 57.0982,248.814 54.7649,248.647 52.5,247.5C 53.5084,244.805 54.5084,242.138 55.5,239.5 Z"/></g>
<g><path style="opacity:0.708" fill="#000000" d="M 69.5,233.5 C 74.9586,233.103 80.2919,233.603 85.5,235C 88.1667,238 88.1667,241 85.5,244C 90.8333,248.667 90.8333,253.333 85.5,258C 80.1771,258.499 74.8437,258.666 69.5,258.5C 69.5,250.167 69.5,241.833 69.5,233.5 Z M 74.5,237.5 C 76.8568,237.337 79.1902,237.503 81.5,238C 82.9909,240.022 82.6576,241.688 80.5,243C 78.5273,243.495 76.5273,243.662 74.5,243.5C 74.5,241.5 74.5,239.5 74.5,237.5 Z M 74.5,247.5 C 77.5184,247.335 80.5184,247.502 83.5,248C 86.1667,250 86.1667,252 83.5,254C 80.6074,255.149 77.6074,255.649 74.5,255.5C 74.5,252.833 74.5,250.167 74.5,247.5 Z"/></g>
<g><path style="opacity:0.695" fill="#000000" d="M 92.5,233.5 C 97.5988,233.175 102.599,233.675 107.5,235C 111.341,239.867 110.674,244.2 105.5,248C 108.13,251.632 111.13,254.965 114.5,258C 112.5,258.667 110.5,258.667 108.5,258C 105.794,255.629 103.461,252.963 101.5,250C 100.207,249.51 98.8734,249.343 97.5,249.5C 97.5,252.5 97.5,255.5 97.5,258.5C 95.8333,258.5 94.1667,258.5 92.5,258.5C 92.5,250.167 92.5,241.833 92.5,233.5 Z M 97.5,237.5 C 99.5273,237.338 101.527,237.505 103.5,238C 106.167,240.333 106.167,242.667 103.5,245C 101.527,245.495 99.5273,245.662 97.5,245.5C 97.5,242.833 97.5,240.167 97.5,237.5 Z"/></g>
<g><path style="opacity:0.779" fill="#000000" d="M 115.5,233.5 C 118.833,233.5 122.167,233.5 125.5,233.5C 125.5,234.833 125.5,236.167 125.5,237.5C 124.5,237.5 123.5,237.5 122.5,237.5C 122.5,243.5 122.5,249.5 122.5,255.5C 123.5,255.5 124.5,255.5 125.5,255.5C 125.5,256.5 125.5,257.5 125.5,258.5C 122.167,258.5 118.833,258.5 115.5,258.5C 115.5,257.5 115.5,256.5 115.5,255.5C 116.5,255.5 117.5,255.5 118.5,255.5C 118.5,249.5 118.5,243.5 118.5,237.5C 117.5,237.5 116.5,237.5 115.5,237.5C 115.5,236.167 115.5,234.833 115.5,233.5 Z"/></g>
<g><path style="opacity:0.688" fill="#000000" d="M 150.5,257.5 C 138.586,262.547 131.253,258.88 128.5,246.5C 130.977,234.01 138.144,230.344 150,235.5C 150.798,237.259 150.631,238.926 149.5,240.5C 138.192,234.307 133.026,237.64 134,250.5C 135.396,253.784 137.896,255.451 141.5,255.5C 144.366,255.069 147.032,254.069 149.5,252.5C 150.452,254.045 150.785,255.712 150.5,257.5 Z"/></g>
<g><path style="opacity:0.717" fill="#000000" d="M 150.5,257.5 C 153.723,250.033 156.723,242.367 159.5,234.5C 161.5,233.167 163.5,233.167 165.5,234.5C 168.014,242.546 171.014,250.379 174.5,258C 170.237,259.513 167.904,258.013 167.5,253.5C 164.216,252.343 160.882,252.176 157.5,253C 156.74,254.441 156.074,255.941 155.5,257.5C 153.701,258.788 152.035,258.788 150.5,257.5 Z M 161.5,239.5 C 163.383,241.763 164.716,244.43 165.5,247.5C 163.604,248.466 161.604,248.799 159.5,248.5C 160.167,245.5 160.833,242.5 161.5,239.5 Z"/></g>
<g><path style="opacity:0.537" fill="#000000" d="M 198.5,240.5 C 199.5,240.5 200.5,240.5 201.5,240.5C 201.666,246.509 201.499,252.509 201,258.5C 200.586,258.957 200.086,259.291 199.5,259.5C 196.138,259.84 192.805,259.34 189.5,258C 184.623,251.391 186.123,246.891 194,244.5C 195.473,244.903 196.806,245.57 198,246.5C 198.495,244.527 198.662,242.527 198.5,240.5 Z M 192.5,247.5 C 198.238,248.381 199.571,251.214 196.5,256C 191.502,257.33 189.336,255.496 190,250.5C 190.698,249.309 191.531,248.309 192.5,247.5 Z"/></g>
<g><path style="opacity:0.579" fill="#000000" d="M 208.5,244.5 C 214.04,244.376 217.04,247.043 217.5,252.5C 213.486,252.334 209.486,252.501 205.5,253C 208.32,257.489 211.486,257.655 215,253.5C 216.835,255.727 216.335,257.56 213.5,259C 204.179,259.861 201.179,256.028 204.5,247.5C 205.901,246.479 207.235,245.479 208.5,244.5 Z M 208.5,247.5 C 210.484,247.383 212.15,248.05 213.5,249.5C 211.235,250.647 208.902,250.814 206.5,250C 207.381,249.292 208.047,248.458 208.5,247.5 Z"/></g>
<g><path style="opacity:0.709" fill="#000000" d="M 90.5,299.5 C 87.5,299.5 84.5,299.5 81.5,299.5C 79.6674,294.392 79.0008,289.058 79.5,283.5C 76.8333,283.5 74.1667,283.5 71.5,283.5C 71.5,288.833 71.5,294.167 71.5,299.5C 70.1667,299.5 68.8333,299.5 67.5,299.5C 67.8282,294.125 67.4948,288.792 66.5,283.5C 65.5,283.167 64.8333,282.5 64.5,281.5C 66.7604,279.318 68.2604,276.651 69,273.5C 72.7071,270.569 75.8738,270.902 78.5,274.5C 78.1667,275.167 77.8333,275.833 77.5,276.5C 74.1118,274.861 72.1118,275.861 71.5,279.5C 74.1667,279.5 76.8333,279.5 79.5,279.5C 79.5,277.5 79.5,275.5 79.5,273.5C 83.0681,273.759 84.4015,275.759 83.5,279.5C 85.8333,279.5 88.1667,279.5 90.5,279.5C 90.5,280.833 90.5,282.167 90.5,283.5C 88.1667,283.5 85.8333,283.5 83.5,283.5C 83.3347,287.182 83.5014,290.848 84,294.5C 86.0408,295.423 88.2075,295.756 90.5,295.5C 90.5,296.833 90.5,298.167 90.5,299.5 Z"/></g>
<g><path style="opacity:0.998" fill="#096385" d="M 179.5,299.5 C 177.833,299.5 176.167,299.5 174.5,299.5C 179.065,290.036 183.899,280.703 189,271.5C 190.356,270.62 191.856,270.286 193.5,270.5C 189.638,280.557 184.971,290.224 179.5,299.5 Z"/></g>
<g><path style="opacity:0.722" fill="#000000" d="M 36.5,299.5 C 32.5,299.5 28.5,299.5 24.5,299.5C 23.791,298.596 22.791,298.263 21.5,298.5C 21.3379,296.473 21.5045,294.473 22,292.5C 26.8916,295.936 31.8916,296.27 37,293.5C 37.6838,292.216 37.5171,291.049 36.5,290C 32.8333,289 29.1667,288 25.5,287C 20.1916,282.763 20.1916,278.429 25.5,274C 30.1497,272.091 34.8164,272.091 39.5,274C 40.7596,275.814 40.7596,277.647 39.5,279.5C 36.5472,277.127 33.2138,276.293 29.5,277C 26.1057,278.565 25.7723,280.565 28.5,283C 33.0292,283.668 37.1959,285.168 41,287.5C 42.6913,292.869 41.1913,296.869 36.5,299.5 Z"/></g>
<g><path style="opacity:0.999" fill="#07688c" d="M 221.5,282.5 C 221.5,284.167 221.5,285.833 221.5,287.5C 213.641,291.261 205.975,295.261 198.5,299.5C 197.5,299.5 196.5,299.5 195.5,299.5C 195.261,297.533 195.594,295.699 196.5,294C 202.421,291.64 208.088,288.807 213.5,285.5C 207.992,282.245 202.325,279.245 196.5,276.5C 195.167,274.5 195.167,272.5 196.5,270.5C 204.733,274.784 213.067,278.784 221.5,282.5 Z"/></g>
<g><path style="opacity:0.704" fill="#000000" d="M 58.5,299.5 C 55.5,299.5 52.5,299.5 49.5,299.5C 43.7141,294.035 43.0474,287.868 47.5,281C 54.7596,277.086 59.9263,278.919 63,286.5C 63.9656,291.773 62.4656,296.106 58.5,299.5 Z M 52.5,282.5 C 56.6294,282.965 58.6294,285.299 58.5,289.5C 58.8231,293.009 57.3231,295.343 54,296.5C 50.3494,295.375 48.8494,292.875 49.5,289C 49.0358,285.993 50.0358,283.827 52.5,282.5 Z"/></g>
<g><path style="opacity:0.727" fill="#000000" d="M 136.5,299.5 C 135.167,299.5 133.833,299.5 132.5,299.5C 132.167,298.167 131.833,298.167 131.5,299.5C 128.5,299.5 125.5,299.5 122.5,299.5C 119.476,296.702 118.81,293.369 120.5,289.5C 124.195,287.268 128.195,285.768 132.5,285C 129.285,282.406 125.785,282.239 122,284.5C 121.506,282.866 121.34,281.199 121.5,279.5C 126.36,278.201 131.027,278.867 135.5,281.5C 136.457,287.439 136.79,293.439 136.5,299.5 Z M 128.5,289.5 C 129.833,289.5 131.167,289.5 132.5,289.5C 132.574,294.82 129.907,296.82 124.5,295.5C 123.933,292.089 125.266,290.089 128.5,289.5 Z"/></g>
<g><path style="opacity:0.673" fill="#000000" d="M 171.5,299.5 C 167.833,299.5 164.167,299.5 160.5,299.5C 158.525,298.354 157.025,296.687 156,294.5C 153.88,281.276 159.047,276.776 171.5,281C 173.227,283.904 173.893,287.07 173.5,290.5C 168.821,290.334 164.155,290.501 159.5,291C 162.781,297.308 167.115,298.141 172.5,293.5C 173.771,295.806 173.438,297.806 171.5,299.5 Z M 163.5,282.5 C 166.257,282.378 168.257,283.545 169.5,286C 166.446,286.821 163.446,286.655 160.5,285.5C 161.34,284.265 162.34,283.265 163.5,282.5 Z"/></g>
<g><path style="opacity:0.7" fill="#000000" d="M 112.5,299.5 C 111.167,299.5 109.833,299.5 108.5,299.5C 105.834,283.501 103.167,283.501 100.5,299.5C 99.1667,299.5 97.8333,299.5 96.5,299.5C 94.4299,292.952 92.7632,286.285 91.5,279.5C 92.9778,279.238 94.3112,279.571 95.5,280.5C 96.513,284.22 97.6796,287.886 99,291.5C 100.269,287.859 101.436,284.192 102.5,280.5C 103.833,279.167 105.167,279.167 106.5,280.5C 107.64,283.923 108.974,287.256 110.5,290.5C 111.751,287.244 112.751,283.91 113.5,280.5C 114.689,279.571 116.022,279.238 117.5,279.5C 116.455,286.345 114.789,293.011 112.5,299.5 Z"/></g>
<g><path style="opacity:0.643" fill="#000000" d="M 146.5,299.5 C 144.833,299.5 143.167,299.5 141.5,299.5C 141.5,292.833 141.5,286.167 141.5,279.5C 145.795,280.538 150.129,280.538 154.5,279.5C 154.5,280.833 154.5,282.167 154.5,283.5C 151.728,283.22 149.228,283.887 147,285.5C 146.501,290.155 146.334,294.821 146.5,299.5 Z"/></g>
</svg>
